<svg width="14" height="11" viewBox="0 0 14 11" fill="none" xmlns="http://www.w3.org/2000/svg">
<path d="M12.7273 3.27295C11.8045 3.27295 11.2891 4.18932 11.4991 4.87023L9.24 7.13569C9.04909 7.07841 8.76909 7.07841 8.57818 7.13569L6.95545 5.51296C7.17182 4.83204 6.65636 3.90931 5.72727 3.90931C4.80455 3.90931 4.28273 4.82568 4.49909 5.51296L1.59727 8.40842C0.916364 8.19842 0 8.71387 0 9.6366C0 10.3366 0.572727 10.9093 1.27273 10.9093C2.19545 10.9093 2.71091 9.99297 2.50091 9.31206L5.39636 6.41023C5.58727 6.4675 5.86727 6.4675 6.05818 6.41023L7.68091 8.03296C7.46455 8.71387 7.98 9.6366 8.90909 9.6366C9.83182 9.6366 10.3536 8.72024 10.1373 8.03296L12.4027 5.77386C13.0836 5.98387 14 5.46841 14 4.54568C14 3.84568 13.4273 3.27295 12.7273 3.27295Z" fill="white"/>
<path d="M8.90909 3.90901L9.50727 2.59174L10.8182 1.99992L9.50727 1.4081L8.90909 0.0908203L8.32363 1.4081L7 1.99992L8.32363 2.59174L8.90909 3.90901Z" fill="white"/>
<path d="M1.59089 5.18233L1.90906 3.90959L3.18177 3.59141L1.90906 3.27323L1.59089 2.00049L1.27271 3.27323L0 3.59141L1.27271 3.90959L1.59089 5.18233Z" fill="white"/>
</svg>
