<svg width="24" height="24" viewBox="0 0 24 24" fill="none" xmlns="http://www.w3.org/2000/svg">
<path d="M16.1902 4.94484L16.6194 5.85919L16.1902 4.94484ZM5.11081 15.3142L4.23719 15.7797L5.11081 15.3142ZM5.84851 13.9201C9.48719 15.2262 13.4359 13.3145 14.6683 9.65015L16.5507 10.3258C14.9662 15.0371 9.88928 17.495 5.21097 15.8158L5.84851 13.9201ZM14.6683 9.65015C14.9768 8.73271 15.0856 7.79489 15.0194 6.88332L17.0015 6.7675C17.0868 7.94298 16.946 9.15027 16.5507 10.3258L14.6683 9.65015ZM18.6873 13.9537C19.5919 11.2641 18.7821 8.37583 16.8441 6.51258L18.2004 5.06356C20.6882 7.45533 21.7338 11.168 20.5697 14.6294L18.6873 13.9537ZM9.86755 18.2237C13.5062 19.5298 17.455 17.6181 18.6873 13.9537L20.5697 14.6294C18.9853 19.3407 13.9083 21.7986 9.23002 20.1194L9.86755 18.2237ZM5.98443 14.8488C6.7913 16.3688 8.13805 17.6029 9.86755 18.2237L9.23002 20.1194C7.00752 19.3216 5.2734 17.7317 4.23719 15.7797L5.98443 14.8488ZM15.0194 6.88332C14.9797 6.33578 14.9402 5.82098 14.962 5.43176C14.9794 5.1217 15.0516 4.36309 15.7611 4.0305L16.6194 5.85919C16.8097 5.76997 16.9057 5.61875 16.9406 5.53301C16.9643 5.47507 16.9524 5.46802 16.9463 5.5774C16.9337 5.80309 16.9572 6.15689 17.0015 6.7675L15.0194 6.88332ZM16.8441 6.51258C16.67 6.34519 16.5313 6.21201 16.4108 6.10232C16.2884 5.99094 16.2096 5.92686 16.1581 5.89079C16.1017 5.85132 16.1271 5.8807 16.2127 5.90162C16.3284 5.92989 16.4796 5.92471 16.6194 5.85919L15.7611 4.0305C16.4089 3.72687 16.9797 4.03757 17.2707 4.24132C17.5609 4.44447 17.8854 4.7607 18.2004 5.06356L16.8441 6.51258ZM5.21097 15.8158C5.46202 15.9059 5.71888 15.8252 5.87804 15.6595C6.05071 15.4798 6.14458 15.1505 5.98443 14.8488L4.23719 15.7797C3.93433 15.2091 4.09585 14.6058 4.44275 14.2446C4.77615 13.8976 5.31383 13.7282 5.84851 13.9201L5.21097 15.8158Z" fill="#96CF24"/>
<path d="M3.87431 6.13414L3.80003 6.16257C3.32202 6.34547 3.08302 6.43692 2.99598 6.55556C2.86684 6.73159 2.86684 6.97105 2.99598 7.14707C3.08302 7.26572 3.32202 7.35717 3.80003 7.54007L3.87432 7.56849C4.23256 7.70557 4.41169 7.77411 4.56767 7.86924C4.88754 8.06432 5.14618 8.34532 5.31413 8.68024C5.39603 8.84356 5.44951 9.02774 5.55648 9.39609L5.55648 9.3961C5.70706 9.91465 5.78235 10.1739 5.87481 10.2653C6.06958 10.4578 6.38294 10.4578 6.57771 10.2653C6.67018 10.1739 6.74547 9.91466 6.89605 9.3961L6.89605 9.3961C7.00302 9.02774 7.0565 8.84356 7.1384 8.68024C7.30634 8.34532 7.56498 8.06432 7.88486 7.86924C8.04084 7.77411 8.21996 7.70557 8.57821 7.56849L8.57821 7.56849L8.65249 7.54007C9.1305 7.35717 9.36951 7.26572 9.45655 7.14707C9.58568 6.97105 9.58568 6.73159 9.45655 6.55556C9.36951 6.43692 9.1305 6.34547 8.65249 6.16257L8.57821 6.13414C8.21996 5.99707 8.04084 5.92853 7.88486 5.8334C7.56498 5.63832 7.30634 5.35731 7.1384 5.0224C7.0565 4.85908 7.00302 4.6749 6.89605 4.30654L6.89605 4.30653C6.74547 3.78798 6.67018 3.5287 6.57771 3.43733C6.38294 3.24486 6.06958 3.24486 5.87481 3.43733C5.78235 3.5287 5.70706 3.78798 5.55648 4.30654L5.55648 4.30654C5.44951 4.6749 5.39603 4.85908 5.31413 5.0224C5.14618 5.35731 4.88754 5.63832 4.56767 5.8334C4.41169 5.92853 4.23256 5.99707 3.87431 6.13414Z" stroke="#96CF24" stroke-width="2"/>
</svg>
