<svg width="24" height="24" viewBox="0 0 24 24" fill="none" xmlns="http://www.w3.org/2000/svg">
<path d="M12 24C5.3835 24 0 18.6165 0 12C0 5.3835 5.3835 0 12 0C18.6165 0 24 5.3835 24 12C24 18.6165 18.6165 24 12 24ZM20.496 18.1455C19.203 17.6325 17.874 17.226 16.5105 16.959C15.9315 18.8655 15.012 20.691 13.749 22.3425C16.515 21.8745 18.912 20.328 20.496 18.1455ZM15.396 8.73C13.143 9.039 10.8555 9.039 8.6025 8.73C8.1405 10.881 8.139 13.107 8.5995 15.2595C9.7185 15.1065 10.8495 15 12 15C13.1505 15 14.28 15.1065 15.399 15.2595C15.8595 13.107 15.858 10.881 15.396 8.73ZM15.0075 16.7265C13.011 16.4685 10.9875 16.4685 8.991 16.7265C9.606 18.6555 10.611 20.484 12 22.104C13.389 20.484 14.3925 18.6555 15.0075 16.7265ZM10.248 22.3425C8.985 20.691 8.067 18.8655 7.488 16.959C6.126 17.226 4.797 17.6325 3.504 18.1455C5.0865 20.328 7.4835 21.8745 10.248 22.3425ZM1.5 12C1.5 13.749 1.9365 15.396 2.6955 16.848C4.1295 16.2585 5.601 15.795 7.1145 15.4905C6.633 13.185 6.633 10.8045 7.116 8.4975C5.604 8.196 4.1265 7.7355 2.6955 7.1475C1.9365 8.6025 1.5 10.2495 1.5 12ZM3.504 5.8545C4.797 6.3675 6.126 6.774 7.488 7.041C8.067 5.1345 8.9865 3.309 10.2495 1.6575C7.4835 2.1255 5.0865 3.672 3.504 5.8545ZM8.9925 7.2735C10.9875 7.5315 13.011 7.5315 15.0075 7.2735C14.3925 5.3445 13.3875 3.516 12 1.896C10.611 3.516 9.6075 5.3445 8.9925 7.2735ZM13.749 1.6575C15.012 3.309 15.9315 5.1345 16.5105 7.041C17.8725 6.774 19.203 6.366 20.496 5.8545C18.912 3.672 16.515 2.1255 13.749 1.6575ZM16.8825 8.5005C17.3655 10.806 17.367 13.1865 16.884 15.492C18.3975 15.7965 19.8705 16.2585 21.3045 16.8495C22.0635 15.396 22.5 13.749 22.5 12C22.5 10.2495 22.0635 8.6025 21.3045 7.1505C19.8735 7.737 18.396 8.1975 16.8825 8.5005Z" fill="#9CA3AF"/>
</svg>
