<svg width="12" height="17" viewBox="0 0 12 17" fill="none" xmlns="http://www.w3.org/2000/svg">
<path d="M8.02208 16.3327L11.8403 12.3326C12.0533 12.1094 12.0532 11.7476 11.8402 11.5245C11.7379 11.4174 11.5993 11.3572 11.4546 11.3572L9.81826 11.3572L9.81826 7.35712C9.81826 7.04151 9.57405 6.78567 9.27279 6.78567C8.97153 6.78567 8.72732 7.04151 8.72732 7.35712L8.72732 11.9286C8.72732 12.2442 8.97153 12.5001 9.27279 12.5001L10.1379 12.5001L7.63644 15.1207L5.13496 12.5001L6.00007 12.5001C6.30133 12.5001 6.54554 12.2442 6.54554 11.9286L6.54554 5.64281L8.18191 5.64281C8.48317 5.64274 8.72732 5.38683 8.72726 5.07126C8.72722 4.91978 8.66979 4.7745 8.56755 4.66736L4.74933 0.667321C4.53631 0.444226 4.19104 0.444226 3.97806 0.667321L0.159836 4.66739C0.0575302 4.77453 3.41391e-05 4.91985 2.6612e-06 5.07139C-0.000221456 5.14649 0.0138729 5.22092 0.0414551 5.29023C0.125958 5.50372 0.324848 5.64287 0.545471 5.64281L2.18185 5.64281L2.18185 9.64287C2.18185 9.95848 2.42606 10.2143 2.72732 10.2143C3.02858 10.2143 3.27279 9.95848 3.27279 9.64287L3.27279 5.07139C3.27279 4.75578 3.02858 4.49994 2.72732 4.49994L1.86221 4.49994L4.36369 1.87932L6.86518 4.49994L6.00007 4.49994C5.69881 4.49994 5.4546 4.75578 5.4546 5.07139L5.4546 11.3572L3.81822 11.3572C3.51696 11.3573 3.27282 11.6132 3.27288 11.9287C3.27291 12.0802 3.33035 12.2255 3.43259 12.3326L7.25081 16.3327C7.46383 16.5558 7.80909 16.5558 8.02208 16.3327Z" fill="white"/>
</svg>
